<svg width="265" height="193" fill="none" xmlns="http://www.w3.org/2000/svg"><path fill-rule="evenodd" clip-rule="evenodd" d="M255.48 26.277c-1.803.601-2.851-2.801-3.311-5.863-.161-1.07.119-3.655.39-6.154.332-3.064.65-5.999.123-5.852-.531.148-1.319 3.003-2.173 6.098-.717 2.6-1.481 5.37-2.179 6.846-.86 1.818-3.611 2.614-5.043 3.028-.231.067-.428.124-.577.173-1.072.358-1.361-.068-1.003-1.856.357-1.787 8.111-17.889 9.228-19.9 1.117-2.01 2.972-2.88 4.424-.759l.381.557c1.867 2.726 6.779 9.898 8.223 12.334 1.486 2.505.323 2.85-.791 3.18l-.163.05c-.305.092-.813.145-1.42.21-1.69.178-4.15.438-5.157 1.847-.659.922-.486 2.222-.331 3.389.167 1.257.313 2.36-.621 2.672zM109.795 130.218c-5.881 16.109-9.807 35.435.553 37.294 5.372.963 7.585-4.791 10.108-11.348 2.342-6.088 4.95-12.867 10.599-15.604 8.634-4.182 21.284 1.079 29.977 4.693h.001c3.121 1.298 5.732 2.384 7.464 2.744l.918.195c6.295 1.348 12.865 2.755 12.285-13.37-.563-15.677-5.431-63.593-7.28-81.792l-.377-3.714c-1.432-14.171-12.762-14.855-23.526-8.039-10.765 6.816-91.173 64.555-97.653 72.299-6.48 7.744-6.206 10.582-.042 11.687.856.154 1.964.399 3.265.687 8.063 1.784 23.548 5.211 32.555-1.352 7.308-5.325 18.368-16.767 28.753-27.51 12.36-12.788 23.763-24.585 26.741-23.895 2.948.683-6.381 14.11-16.122 28.13-7.944 11.434-16.163 23.264-18.219 28.895zm-96.027 44.22c-4.604 2.694-9.377 6.548-7.263 9.048 1.097 1.296 2.768.356 4.673-.715 1.769-.995 3.738-2.103 5.635-1.638 2.899.709 4.888 4.479 6.255 7.069.49.93.901 1.709 1.245 2.138l.181.229c1.242 1.572 2.537 3.212 5.596-.768 2.974-3.869 11.309-16.319 14.475-21.048l.647-.966c2.467-3.68-.113-6.091-4.045-6.592-3.932-.501-34.655-2.608-37.744-2.036-3.089.571-3.586 1.305-2.328 2.793.175.206.392.485.647.812 1.578 2.026 4.61 5.919 8.07 6.132 2.808.173 7.729-.377 12.348-.892 5.499-.614 10.571-1.18 11.148-.424.571.748-4.327 2.116-9.442 3.545-4.172 1.165-8.488 2.371-10.098 3.313z" fill="#5992E8"/></svg>