<svg width="296" height="235" fill="none" xmlns="http://www.w3.org/2000/svg"><path d="M109.419 90.092c-2.358-11.926-6.66-23.019-7.871-34.053-.262-2.382-2.148-4.383-4.252-4.217-2.105.165-6.673 3.188-7.85 12.496-.851 6.738 4.65 15.575 1.834 18.415-2.817 2.84 20.219 8.667 18.139 7.36z" fill="#F5C1C7"/><path d="M35.822.857c-5.157 1.604-9.18 24.804-10.779 31.685C15.284 74.554 1.922 123.24.736 128.345c-1.483 6.382.987 7.516 3.983 9.333 2.995 1.817 62.532 16.209 67.689 14.605 4.126-1.284 6.609-10.796 6.609-10.796 9.606-40.365 26.26-113.62 26.532-117.143.34-4.405.958-7.064-1.389-8.73-2.347-1.667-9.697-3.374-13.371-4.228C74.186 7.341 43.926-1.665 35.822.857z" fill="#5992E8"/><path d="M67.015 43.869c1.93 1.96 2.69 3.801 2.589 6.55-.193 5.19-7.22 7.527-12.405 7.216a8.211 8.211 0 01-1.014-.12c-2.563-.48-5.214-5.634-4.299-9.66 1.287-5.655 10.284-7.846 14.834-4.25.106.084.204.172.295.264zm-3.126-6.13c-1.031 1.4-2.879 2.502-4.012 2.797-.412.108-.819-.074-1.147-.346-.214-.178-.404-.398-.425-.677-.039-.487.093-1.328.746-2.502.601-1.082 2.398-1.914 4.036-2.447 1.22-.397 2.105.422 1.63 1.613-.222.554-.501 1.117-.828 1.562zm30.05-9.175a3.63 3.63 0 11-5.794-4.374 3.63 3.63 0 015.794 4.374z" fill="#FAF8F9"/><path d="M131.171 131.614c-21.315-18.619-17.883-31.638-21.707-41.66-2.242-5.877-12.48-15.84-14.524-6.963-.944 4.102-12.352-2.116-14.432-3.424-6.21-3.906-13.404-10.023-18.598-13.94-4.452-3.357-9.717-8.51-10.482-2.508-.764 6.002 11.273 19.37 14.632 23.829 3.36 4.458 6.72 8.917 1.378 10.38-5.342 1.462-26.264-19.289-33.094-21.556-6.83-2.267-10.3-.076 2.303 14.678 12.604 14.753 14.364 22.132 13.237 23.268-1.126 1.136-2.253 2.272-15.621-6.48-13.368-8.751-22.632-11.18-24.322-9.476-1.69 1.704-.475 3.763 1.016 5.514 4.489 5.276 23.92 20.344 25.317 22.857 1.022 1.837-.96 2.442-2.345 2.365-12.913-.717-26.212-3.648-27.992-3.16-1.78.487-3.38 3.407-.111 6.65 2.156 2.139 11.654 7.428 16.456 9.561 11.594 6.617 59.496 30.083 63.464 31.314 4.959 1.538-4.198-2.986.938-5.932 9.895-5.676 15.087-11.234 21.948-19.23 5.958-6.945 43.854 2.533 22.539-16.087z" fill="#F5C1C7"/><path d="M179.324 155.662c-19.158-9.092-55.192-30.099-60.542-38.36-.073-.128-.15-.255-.23-.383.069.125.146.252.23.383 11.776 20.326-52.21 42.343-34.22 53.959 18.102 11.688 156.372 77.793 159.534 59.746 1.855-10.591 24.212-4.735 26.913-15.001 3.191-12.123 28.76-14.149 23.623-21.414-5.137-7.264-95.846-29.694-115.308-38.93z" fill="#F5C1C7"/></svg>