<svg width="265" height="193" viewBox="0 0 265 193" fill="none" xmlns="http://www.w3.org/2000/svg">
<path fill-rule="evenodd" clip-rule="evenodd" d="M255.48 26.2772C253.677 26.8781 252.629 23.4757 252.169 20.4142C252.008 19.3439 252.288 16.7587 252.559 14.2597C252.891 11.1956 253.209 8.2612 252.682 8.40773C252.151 8.55574 251.363 11.4111 250.509 14.5063C249.792 17.1066 249.028 19.8761 248.33 21.3518C247.47 23.1704 244.719 23.9657 243.287 24.3799C243.056 24.4467 242.859 24.5036 242.71 24.5533C241.638 24.9109 241.349 24.4847 241.707 22.6973C242.064 20.9099 249.818 4.8084 250.935 2.79769C252.052 0.78699 253.907 -0.0839032 255.359 2.03826C255.465 2.19332 255.593 2.38051 255.74 2.59534C257.607 5.3206 262.519 12.493 263.963 14.9288C265.449 17.4343 264.286 17.7792 263.172 18.1097C263.117 18.1258 263.063 18.1419 263.009 18.1582C262.704 18.2508 262.196 18.3044 261.589 18.3685C259.899 18.5469 257.439 18.8067 256.432 20.2157C255.773 21.1377 255.946 22.4377 256.101 23.605C256.268 24.8622 256.414 25.9656 255.48 26.2772ZM109.795 130.218C103.914 146.327 99.9879 165.653 110.348 167.512C115.72 168.475 117.933 162.721 120.456 156.164C122.798 150.076 125.406 143.297 131.055 140.56C139.689 136.378 152.339 141.639 161.032 145.253L161.033 145.253C164.154 146.551 166.765 147.637 168.497 147.997C168.802 148.061 169.108 148.126 169.415 148.192C175.71 149.54 182.28 150.947 181.7 134.822C181.137 119.145 176.269 71.2292 174.42 53.0304C174.275 51.598 174.148 50.3496 174.043 49.3156C172.611 35.1448 161.281 34.4612 150.517 41.277C139.752 48.0928 59.3435 105.832 52.864 113.576C46.3845 121.32 46.6582 124.158 52.822 125.263C53.6782 125.417 54.7859 125.662 56.0868 125.95C64.1505 127.734 79.6353 131.161 88.6416 124.598C95.9501 119.273 107.01 107.831 117.395 97.0877L117.395 97.0875C129.755 84.2998 141.158 72.5029 144.136 73.193C147.084 73.8761 137.755 87.3028 128.014 101.323L128.014 101.323C120.07 112.757 111.851 124.587 109.795 130.218ZM13.7683 174.438C9.16404 177.132 4.39055 180.986 6.50506 183.486C7.60154 184.782 9.27333 183.842 11.1782 182.771C12.9469 181.776 14.9165 180.668 16.8132 181.133C19.7119 181.842 21.7009 185.612 23.0677 188.202C23.5585 189.132 23.9691 189.911 24.3127 190.34C24.3732 190.416 24.4336 190.493 24.4942 190.569C25.7357 192.141 27.0314 193.781 30.0902 189.801C33.064 185.932 41.399 173.482 44.5651 168.753C44.8145 168.381 45.0317 168.056 45.2118 167.787C47.6787 164.107 45.0987 161.696 41.1669 161.195C37.2351 160.694 6.51173 158.587 3.42298 159.159C0.334233 159.73 -0.16302 160.464 1.09516 161.952C1.26993 162.158 1.48683 162.437 1.74155 162.764C3.32046 164.79 6.35248 168.683 9.81258 168.896C12.6204 169.069 17.5406 168.519 22.16 168.004C27.6587 167.39 32.7313 166.824 33.3082 167.58C33.8793 168.328 28.9806 169.696 23.8655 171.125C19.6937 172.29 15.3779 173.496 13.7683 174.438Z" fill="#5992E8"/>
</svg>
