<svg width="296" height="235" viewBox="0 0 296 235" fill="none" xmlns="http://www.w3.org/2000/svg">
<path d="M109.419 90.0923C107.061 78.1661 102.759 67.0733 101.548 56.0395C101.286 53.6572 99.4001 51.6565 97.2957 51.8218C95.1915 51.987 90.6234 55.0102 89.4466 64.3177C88.5946 71.0561 94.0966 79.893 91.28 82.7329C88.4634 85.5728 111.499 91.4003 109.419 90.0923Z" fill="#F5C1C7"/>
<path d="M35.8221 0.856788C30.665 2.46112 26.6418 25.6609 25.0433 32.5425C15.284 74.554 1.92165 123.239 0.735589 128.344C-0.746987 134.726 1.7234 135.86 4.71871 137.677C7.71402 139.494 67.2508 153.886 72.4079 152.282C76.5336 150.998 79.0168 141.486 79.0168 141.486C88.6227 101.121 105.277 27.8665 105.549 24.3425C105.889 19.9375 106.507 17.2786 104.16 15.6124C101.813 13.9461 94.4635 12.2387 90.7887 11.385C74.1856 7.34082 43.9261 -1.66431 35.8221 0.856788Z" fill="#5992E8"/>
<path d="M67.0152 43.869C68.945 45.8288 69.7059 47.6705 69.6038 50.4191C69.411 55.6093 62.3833 57.9464 57.1988 57.6354C56.8461 57.6142 56.5059 57.5753 56.1848 57.5152C53.6218 57.035 50.9706 51.8814 51.8864 47.8551C53.1727 42.1999 62.1699 40.0087 66.7197 43.6052C66.8255 43.6888 66.9242 43.7766 67.0152 43.869Z" fill="#FAF8F9"/>
<path d="M63.8886 37.7388C62.858 39.1399 61.01 40.2412 59.8772 40.5365C59.4646 40.644 59.0585 40.4624 58.7304 40.1901C58.5156 40.0118 58.3262 39.7916 58.3045 39.5132C58.2664 39.0258 58.3983 38.1848 59.0511 37.0107C59.6524 35.9291 61.4493 35.0974 63.0874 34.5642C64.3067 34.1674 65.1922 34.9858 64.7167 36.1766C64.4952 36.7314 64.2155 37.2944 63.8886 37.7388Z" fill="#FAF8F9"/>
<path d="M93.939 28.5636C92.7312 30.1637 90.455 30.4818 88.8549 29.274C87.2547 28.0662 86.9367 25.7899 88.1445 24.1898C89.3523 22.5897 91.6286 22.2717 93.2287 23.4795C94.8288 24.6873 95.1468 26.9635 93.939 28.5636Z" fill="#FAF8F9"/>
<path d="M131.171 131.614C109.856 112.995 113.288 99.9757 109.464 89.9537C107.222 84.0767 96.9834 74.1145 94.9403 82.9909C93.9963 87.0925 82.5877 80.875 80.5081 79.567C74.298 75.6612 67.1035 69.5444 61.9095 65.6276C57.4576 62.2704 52.1929 57.1173 51.4282 63.1189C50.6635 69.1206 62.7005 82.4888 66.06 86.9475C69.4196 91.4062 72.7791 95.8649 67.4378 97.3273C62.0964 98.7898 41.1744 78.0394 34.3445 75.7721C27.5145 73.5048 24.0441 75.6963 36.6475 90.4497C49.2509 105.203 51.011 112.582 49.8844 113.718C48.7577 114.854 47.6311 115.99 34.263 107.238C20.8949 98.4865 11.6307 96.0582 9.94079 97.7622C8.25083 99.4661 9.46606 101.525 10.9566 103.276C15.4459 108.552 34.8761 123.62 36.2742 126.133C37.296 127.97 35.3135 128.575 33.9289 128.498C21.0165 127.781 7.71698 124.85 5.93653 125.338C4.15608 125.825 2.55657 128.745 5.82568 131.988C7.9823 134.127 17.4804 139.416 22.2818 141.549C33.8762 148.166 81.7783 171.632 85.7455 172.863C90.7045 174.401 81.5478 169.877 86.6837 166.931C96.5788 161.255 101.771 155.697 108.632 147.701C114.59 140.756 152.486 150.234 131.171 131.614Z" fill="#F5C1C7"/>
<path d="M179.324 155.662C160.166 146.57 124.132 125.563 118.782 117.302C118.709 117.174 118.632 117.047 118.552 116.919C118.621 117.044 118.698 117.171 118.782 117.302C130.558 137.628 66.572 159.645 84.5615 171.261C102.664 182.949 240.934 249.054 244.096 231.007C245.951 220.416 268.308 226.272 271.009 216.006C274.2 203.883 299.769 201.857 294.632 194.592C289.495 187.328 198.786 164.898 179.324 155.662Z" fill="#F5C1C7"/>
</svg>
